<svg width="199" height="199" viewBox="0 0 199 199" fill="none" xmlns="http://www.w3.org/2000/svg">
<path d="M65.2969 68.4062H145.519C148.158 68.4062 150.688 67.358 152.554 65.492C154.42 63.626 155.469 61.0952 155.469 58.4562V56.9327C155.452 53.3834 154.035 49.9842 151.526 47.4745C149.016 44.9648 145.617 43.5476 142.067 43.5312H56.9327C53.3834 43.5476 49.9842 44.9648 47.4745 47.4745C44.9648 49.9842 43.5476 53.3834 43.5312 56.9327V142.067C43.5476 145.617 44.9648 149.016 47.4745 151.526C49.9842 154.035 53.3834 155.452 56.9327 155.469H142.067C145.617 155.452 149.016 154.035 151.526 151.526C154.035 149.016 155.452 145.617 155.469 142.067V83.9531" stroke="white" stroke-width="2" stroke-linecap="round" stroke-linejoin="round"/>
<path d="M102.609 55.9688H93.2812" stroke="white" stroke-width="2" stroke-linecap="round" stroke-linejoin="round"/>
<path d="M121.266 55.9688H115.047" stroke="white" stroke-width="2" stroke-linecap="round" stroke-linejoin="round"/>
<path d="M143.031 55.9688H133.703" stroke="white" stroke-width="2" stroke-linecap="round" stroke-linejoin="round"/>
<path d="M55.9688 72.9459C57.686 72.9459 59.0781 71.5538 59.0781 69.8365C59.0781 68.1193 57.686 66.7272 55.9688 66.7272C54.2515 66.7272 52.8594 68.1193 52.8594 69.8365C52.8594 71.5538 54.2515 72.9459 55.9688 72.9459Z" fill="white"/>
<path d="M110.009 87.6532L89.7983 139.735" stroke="white" stroke-width="2" stroke-linecap="round" stroke-linejoin="round"/>
<path d="M123.007 100.464L135.849 113.306L122.229 126.894" stroke="white" stroke-width="2" stroke-linecap="round" stroke-linejoin="round"/>
<path d="M77.3612 100.651L64.5195 113.461L78.1386 127.08" stroke="white" stroke-width="2" stroke-linecap="round" stroke-linejoin="round"/>
</svg>
