<svg width="140" height="140" viewBox="0 0 140 140" fill="none" xmlns="http://www.w3.org/2000/svg">
<path d="M21.875 63.4375H118.125C118.705 63.4375 119.262 63.207 119.672 62.7968C120.082 62.3866 120.312 61.8302 120.312 61.25V43.75C120.312 43.1698 120.082 42.6134 119.672 42.2032C119.262 41.793 118.705 41.5625 118.125 41.5625H21.875C21.2948 41.5625 20.7384 41.793 20.3282 42.2032C19.918 42.6134 19.6875 43.1698 19.6875 43.75V61.25C19.6875 61.8302 19.918 62.3866 20.3282 62.7968C20.7384 63.207 21.2948 63.4375 21.875 63.4375ZM24.0625 45.9375H115.938V59.0625H24.0625V45.9375ZM21.875 115.938H65.625C66.2052 115.938 66.7616 115.707 67.1718 115.297C67.582 114.887 67.8125 114.33 67.8125 113.75V70C67.8125 69.4198 67.582 68.8634 67.1718 68.4532C66.7616 68.043 66.2052 67.8125 65.625 67.8125H21.875C21.2948 67.8125 20.7384 68.043 20.3282 68.4532C19.918 68.8634 19.6875 69.4198 19.6875 70V113.75C19.6875 114.33 19.918 114.887 20.3282 115.297C20.7384 115.707 21.2948 115.938 21.875 115.938ZM24.0625 72.1875H63.4375V111.562H24.0625V72.1875ZM118.125 67.8125H74.375C73.7948 67.8125 73.2384 68.043 72.8282 68.4532C72.418 68.8634 72.1875 69.4198 72.1875 70V113.75C72.1875 114.33 72.418 114.887 72.8282 115.297C73.2384 115.707 73.7948 115.938 74.375 115.938H118.125C118.705 115.938 119.262 115.707 119.672 115.297C120.082 114.887 120.312 114.33 120.312 113.75V70C120.312 69.4198 120.082 68.8634 119.672 68.4532C119.262 68.043 118.705 67.8125 118.125 67.8125ZM115.938 111.562H76.5625V72.1875H115.938V111.562ZM122.5 15.3125H17.5C14.5992 15.3125 11.8172 16.4648 9.76602 18.516C7.71484 20.5672 6.5625 23.3492 6.5625 26.25V113.75C6.5625 116.651 7.71484 119.433 9.76602 121.484C11.8172 123.535 14.5992 124.688 17.5 124.688H122.5C125.401 124.688 128.183 123.535 130.234 121.484C132.285 119.433 133.438 116.651 133.438 113.75V26.25C133.438 23.3492 132.285 20.5672 130.234 18.516C128.183 16.4648 125.401 15.3125 122.5 15.3125V15.3125ZM129.062 113.75C129.062 115.49 128.371 117.16 127.14 118.39C125.91 119.621 124.24 120.312 122.5 120.312H17.5C15.7595 120.312 14.0903 119.621 12.8596 118.39C11.6289 117.16 10.9375 115.49 10.9375 113.75V37.1875H129.062V113.75ZM10.9375 32.8125V26.25C10.9375 24.5095 11.6289 22.8403 12.8596 21.6096C14.0903 20.3789 15.7595 19.6875 17.5 19.6875H122.5C124.24 19.6875 125.91 20.3789 127.14 21.6096C128.371 22.8403 129.062 24.5095 129.062 26.25V32.8125H10.9375ZM120.312 26.25C120.312 26.6826 120.184 27.1056 119.944 27.4653C119.703 27.825 119.362 28.1054 118.962 28.271C118.562 28.4366 118.123 28.4799 117.698 28.3955C117.274 28.3111 116.884 28.1027 116.578 27.7968C116.272 27.4909 116.064 27.1011 115.98 26.6768C115.895 26.2524 115.938 25.8126 116.104 25.4129C116.27 25.0132 116.55 24.6715 116.91 24.4312C117.269 24.1908 117.692 24.0625 118.125 24.0625C118.705 24.0625 119.262 24.293 119.672 24.7032C120.082 25.1134 120.312 25.6698 120.312 26.25ZM113.75 26.25C113.75 26.6826 113.622 27.1056 113.381 27.4653C113.141 27.825 112.799 28.1054 112.4 28.271C112 28.4366 111.56 28.4799 111.136 28.3955C110.711 28.3111 110.322 28.1027 110.016 27.7968C109.71 27.4909 109.501 27.1011 109.417 26.6768C109.333 26.2524 109.376 25.8126 109.542 25.4129C109.707 25.0132 109.987 24.6715 110.347 24.4312C110.707 24.1908 111.13 24.0625 111.562 24.0625C112.143 24.0625 112.699 24.293 113.109 24.7032C113.52 25.1134 113.75 25.6698 113.75 26.25ZM107.188 26.25C107.188 26.6826 107.059 27.1056 106.819 27.4653C106.578 27.825 106.237 28.1054 105.837 28.271C105.437 28.4366 104.998 28.4799 104.573 28.3955C104.149 28.3111 103.759 28.1027 103.453 27.7968C103.147 27.4909 102.939 27.1011 102.855 26.6768C102.77 26.2524 102.813 25.8126 102.979 25.4129C103.145 25.0132 103.425 24.6715 103.785 24.4312C104.144 24.1908 104.567 24.0625 105 24.0625C105.58 24.0625 106.137 24.293 106.547 24.7032C106.957 25.1134 107.188 25.6698 107.188 26.25Z" fill="white"/>
</svg>
