<svg width="52" height="52" viewBox="0 0 52 52" fill="none" xmlns="http://www.w3.org/2000/svg">
<rect y="25.9822" width="36.7443" height="36.7443" transform="rotate(-45 0 25.9822)" fill="#F5AF31"/>
<path fill-rule="evenodd" clip-rule="evenodd" d="M25.8507 14.6112C19.641 14.6112 14.6113 19.6408 14.6113 25.8506C14.6113 30.8241 17.8286 35.0248 22.2963 36.514C22.8582 36.6124 23.069 36.2752 23.069 35.9801C23.069 35.7132 23.0549 34.8281 23.0549 33.8868C20.231 34.4066 19.5005 33.1984 19.2757 32.5662C19.1492 32.243 18.6013 31.2455 18.1236 30.9786C17.7303 30.7679 17.1683 30.248 18.1096 30.234C18.9947 30.2199 19.6269 31.0488 19.8377 31.386C20.8492 33.086 22.4649 32.6083 23.1111 32.3133C23.2095 31.5827 23.5045 31.091 23.8276 30.81C21.3269 30.529 18.7137 29.5596 18.7137 25.2606C18.7137 24.0383 19.1492 23.0267 19.8658 22.24C19.7534 21.959 19.36 20.8069 19.9781 19.2615C19.9781 19.2615 20.9194 18.9665 23.069 20.4136C23.9681 20.1607 24.9235 20.0342 25.8788 20.0342C26.8342 20.0342 27.7895 20.1607 28.6887 20.4136C30.8382 18.9524 31.7795 19.2615 31.7795 19.2615C32.3977 20.8069 32.0043 21.959 31.8919 22.24C32.6084 23.0267 33.044 24.0242 33.044 25.2606C33.044 29.5737 30.4168 30.529 27.916 30.81C28.3234 31.1612 28.6746 31.8356 28.6746 32.8893C28.6746 34.3926 28.6606 35.6008 28.6606 35.9801C28.6606 36.2752 28.8713 36.6264 29.4333 36.514C31.6645 35.7607 33.6033 34.3267 34.9768 32.4138C36.3504 30.501 37.0895 28.2055 37.0902 25.8506C37.0902 19.6408 32.0605 14.6112 25.8507 14.6112Z" fill="white"/>
</svg>
