<svg width="53" height="52" viewBox="0 0 53 52" fill="none" xmlns="http://www.w3.org/2000/svg">
<rect x="0.964355" y="25.9822" width="36.7443" height="36.7443" transform="rotate(-45 0.964355 25.9822)" fill="#F5AF31"/>
<path fill-rule="evenodd" clip-rule="evenodd" d="M21.9182 14.6787C23.1167 14.6235 23.4989 14.6113 26.5519 14.6113C29.6049 14.6113 29.9871 14.6246 31.1846 14.6787C32.3821 14.7329 33.1995 14.9239 33.9147 15.2008C34.6637 15.4839 35.3432 15.9263 35.9051 16.4985C36.4773 17.0594 36.9187 17.7379 37.2007 18.4878C37.4787 19.2031 37.6687 20.0205 37.7239 21.216C37.7791 22.4165 37.7913 22.7987 37.7913 25.8507C37.7913 28.9037 37.778 29.2859 37.7239 30.4844C37.6697 31.6798 37.4787 32.4973 37.2007 33.2125C36.9187 33.9626 36.4766 34.6421 35.9051 35.2039C35.3432 35.7761 34.6637 36.2175 33.9147 36.4995C33.1995 36.7774 32.3821 36.9675 31.1866 37.0227C29.9871 37.0778 29.6049 37.0901 26.5519 37.0901C23.4989 37.0901 23.1167 37.0768 21.9182 37.0227C20.7227 36.9685 19.9053 36.7774 19.1901 36.4995C18.44 36.2175 17.7605 35.7753 17.1987 35.2039C16.6269 34.6426 16.1844 33.9634 15.9021 33.2135C15.6252 32.4983 15.4351 31.6809 15.3799 30.4854C15.3248 29.2848 15.3125 28.9027 15.3125 25.8507C15.3125 22.7976 15.3258 22.4155 15.3799 21.218C15.4341 20.0205 15.6252 19.2031 15.9021 18.4878C16.1848 17.738 16.6276 17.0587 17.1997 16.4974C17.7607 15.9258 18.4396 15.4833 19.1891 15.2008C19.9043 14.9239 20.7217 14.7339 21.9172 14.6787H21.9182ZM31.0937 16.7018C29.9084 16.6476 29.5528 16.6364 26.5519 16.6364C23.551 16.6364 23.1954 16.6476 22.0102 16.7018C20.9138 16.7519 20.3191 16.9348 19.9227 17.089C19.3985 17.2934 19.0235 17.5356 18.6302 17.9289C18.2573 18.2917 17.9703 18.7334 17.7903 19.2215C17.636 19.6179 17.4531 20.2126 17.403 21.3089C17.3489 22.4942 17.3376 22.8498 17.3376 25.8507C17.3376 28.8516 17.3489 29.2072 17.403 30.3924C17.4531 31.4888 17.636 32.0834 17.7903 32.4799C17.9701 32.9673 18.2572 33.4097 18.6302 33.7724C18.9929 34.1454 19.4353 34.4325 19.9227 34.6123C20.3191 34.7666 20.9138 34.9495 22.0102 34.9996C23.1954 35.0537 23.55 35.065 26.5519 35.065C29.5539 35.065 29.9084 35.0537 31.0937 34.9996C32.19 34.9495 32.7847 34.7666 33.1811 34.6123C33.7053 34.408 34.0803 34.1658 34.4737 33.7724C34.8466 33.4097 35.1337 32.9673 35.3135 32.4799C35.4678 32.0834 35.6507 31.4888 35.7008 30.3924C35.7549 29.2072 35.7662 28.8516 35.7662 25.8507C35.7662 22.8498 35.7549 22.4942 35.7008 21.3089C35.6507 20.2126 35.4678 19.6179 35.3135 19.2215C35.1092 18.6973 34.867 18.3223 34.4737 17.9289C34.1109 17.5561 33.6692 17.2691 33.1811 17.089C32.7847 16.9348 32.19 16.7519 31.0937 16.7018V16.7018ZM25.1163 29.3155C25.9181 29.6492 26.8108 29.6943 27.6421 29.4429C28.4733 29.1916 29.1915 28.6594 29.674 27.9374C30.1565 27.2153 30.3734 26.3481 30.2875 25.484C30.2017 24.6198 29.8185 23.8122 29.2034 23.1992C28.8113 22.8073 28.3372 22.5073 27.8152 22.3206C27.2932 22.134 26.7363 22.0654 26.1846 22.1198C25.6329 22.1742 25.1001 22.3503 24.6247 22.6353C24.1492 22.9203 23.7428 23.3072 23.4348 23.7682C23.1268 24.2291 22.9248 24.7526 22.8434 25.3009C22.762 25.8493 22.8032 26.4089 22.964 26.9394C23.1248 27.4699 23.4013 27.9582 23.7734 28.369C24.1456 28.7799 24.6042 29.1031 25.1163 29.3155ZM22.4669 21.7657C23.0033 21.2292 23.6402 20.8037 24.3411 20.5133C25.042 20.223 25.7933 20.0736 26.5519 20.0736C27.3106 20.0736 28.0618 20.223 28.7627 20.5133C29.4636 20.8037 30.1005 21.2292 30.6369 21.7657C31.1734 22.3021 31.5989 22.939 31.8892 23.6399C32.1796 24.3408 32.329 25.092 32.329 25.8507C32.329 26.6093 32.1796 27.3606 31.8892 28.0615C31.5989 28.7624 31.1734 29.3992 30.6369 29.9357C29.5535 31.0191 28.0841 31.6278 26.5519 31.6278C25.0197 31.6278 23.5503 31.0191 22.4669 29.9357C21.3835 28.8523 20.7748 27.3829 20.7748 25.8507C20.7748 24.3185 21.3835 22.8491 22.4669 21.7657V21.7657ZM33.6103 20.9339C33.7432 20.8085 33.8496 20.6577 33.9232 20.4905C33.9968 20.3232 34.0361 20.1429 34.0388 19.9601C34.0415 19.7774 34.0074 19.596 33.9387 19.4267C33.87 19.2573 33.7681 19.1035 33.6388 18.9742C33.5096 18.845 33.3558 18.743 33.1864 18.6743C33.0171 18.6056 32.8357 18.5716 32.6529 18.5743C32.4702 18.5769 32.2899 18.6162 32.1226 18.6898C31.9553 18.7635 31.8045 18.8699 31.6791 19.0028C31.4352 19.2613 31.3017 19.6048 31.3069 19.9601C31.3121 20.3155 31.4556 20.6549 31.7069 20.9062C31.9582 21.1575 32.2976 21.301 32.6529 21.3062C33.0083 21.3114 33.3517 21.1778 33.6103 20.9339V20.9339Z" fill="white"/>
</svg>
