<svg width="157" height="312" viewBox="0 0 157 312" fill="none" xmlns="http://www.w3.org/2000/svg">
<g clip-path="url(#clip0_405_768)">
<path d="M114.124 243.475L239.041 107.029C247.002 98.3332 246.407 84.8327 237.711 76.8717C229.015 68.9107 215.515 69.5062 207.554 78.202L82.6368 214.648C74.6758 223.344 75.2713 236.845 83.9671 244.806C92.6629 252.767 106.163 252.171 114.124 243.475Z" fill="#3FAFDD"/>
<g clip-path="url(#clip1_405_768)">
<path d="M112.993 139.785L237.91 3.33853C245.871 -5.35726 245.275 -18.8577 236.579 -26.8187C227.884 -34.7797 214.383 -34.1842 206.422 -25.4884L81.5054 110.958C73.5444 119.654 74.14 133.154 82.8358 141.115C91.5316 149.076 105.032 148.481 112.993 139.785Z" fill="#D843AB"/>
</g>
<circle cx="51.4072" cy="172.726" r="25.5" transform="rotate(172.73 51.4072 172.726)" fill="#8472AD"/>
</g>
<defs>
<clipPath id="clip0_405_768">
<rect width="227.682" height="227.682" fill="white" transform="translate(321.678 153.744) rotate(132.474)"/>
</clipPath>
<clipPath id="clip1_405_768">
<rect width="227.682" height="227.682" fill="white" transform="translate(320.546 50.0532) rotate(132.474)"/>
</clipPath>
</defs>
</svg>
