<svg width="720" height="641" viewBox="0 0 720 641" fill="none" xmlns="http://www.w3.org/2000/svg">
<g clip-path="url(#clip0_402_128)">
<path d="M616.24 84.3831L475.06 203.924C466.063 211.543 464.945 225.01 472.564 234.007C480.182 243.005 493.649 244.123 502.647 236.504L643.827 116.963C652.824 109.345 653.942 95.8773 646.323 86.8798C638.705 77.8824 625.238 76.7646 616.24 84.3831Z" fill="#3FAFDD"/>
<g clip-path="url(#clip1_402_128)">
<path d="M604.24 187.383L463.06 306.924C454.063 314.543 452.945 328.01 460.564 337.007C468.182 346.005 481.649 347.123 490.647 339.504L631.827 219.963C640.824 212.345 641.942 198.877 634.323 189.88C626.705 180.882 613.238 179.765 604.24 187.383Z" fill="#D843AB"/>
</g>
<circle cx="669.5" cy="162.5" r="25.5" fill="#8472AD"/>
</g>
<g clip-path="url(#clip2_402_128)">
<path d="M100.877 555.259L245.632 440.073C254.857 432.732 256.384 419.305 249.043 410.08C241.702 400.854 228.275 399.327 219.05 406.668L74.2954 521.854C65.0702 529.195 63.5428 542.622 70.8837 551.848C78.2246 561.073 91.6516 562.6 100.877 555.259Z" fill="#3FAFDD"/>
<g clip-path="url(#clip3_402_128)">
<path d="M116.008 452.672L260.763 337.486C269.988 330.145 271.515 316.718 264.175 307.493C256.834 298.268 243.407 296.74 234.181 304.081L89.4268 419.268C80.2015 426.608 78.6742 440.035 86.0151 449.261C93.356 458.486 106.783 460.013 116.008 452.672Z" fill="#D843AB"/>
</g>
<circle cx="50.0208" cy="475.557" r="25.5" transform="rotate(-178.255 50.0208 475.557)" fill="#8472AD"/>
</g>
<defs>
<clipPath id="clip0_402_128">
<rect width="227.682" height="227.682" fill="white" transform="translate(399 147.128) rotate(-40.2556)"/>
</clipPath>
<clipPath id="clip1_402_128">
<rect width="227.682" height="227.682" fill="white" transform="translate(387 250.128) rotate(-40.2556)"/>
</clipPath>
<clipPath id="clip2_402_128">
<rect width="227.682" height="227.682" fill="white" transform="translate(319.927 499.16) rotate(141.49)"/>
</clipPath>
<clipPath id="clip3_402_128">
<rect width="227.682" height="227.682" fill="white" transform="translate(335.059 396.573) rotate(141.49)"/>
</clipPath>
</defs>
</svg>
