<svg width="140" height="140" viewBox="0 0 140 140" fill="none" xmlns="http://www.w3.org/2000/svg">
<g clip-path="url(#clip0_402_573)">
<path d="M105 61.25V43.75L94.5 40.25C93.625 37.625 92.75 34.125 91 31.5L96.25 21L83.125 9.625L73.5 14C70.875 12.25 68.25 11.375 64.75 10.5L61.25 0H43.75L40.25 10.5C37.625 11.375 34.125 12.25 31.5 14L21.875 9.625L9.625 21.875L14.875 32.375C13.125 35 12.25 37.625 11.375 41.125L0 43.75V61.25L10.5 64.75C11.375 67.375 12.25 70.875 14 73.5L9.625 83.125L21.875 95.375L32.375 90.125C35 91.875 37.625 92.75 41.125 93.625L43.75 105H61.25L64.75 94.5C67.375 93.625 70.875 92.75 73.5 91L84 96.25L96.25 84L91 73.5C92.75 70.875 93.625 68.25 94.5 64.75L105 61.25V61.25ZM26.25 52.5C26.25 37.625 37.625 26.25 52.5 26.25C67.375 26.25 78.75 37.625 78.75 52.5C78.75 67.375 67.375 78.75 52.5 78.75C37.625 78.75 26.25 67.375 26.25 52.5Z" fill="white"/>
<path d="M65.625 52.5C65.625 59.745 59.745 65.625 52.5 65.625C45.255 65.625 39.375 59.745 39.375 52.5C39.375 45.255 45.255 39.375 52.5 39.375C59.745 39.375 65.625 45.255 65.625 52.5Z" fill="white"/>
<path d="M140 26.25V17.5H134.75C134.75 15.75 133.875 14 133 13.125L136.5 9.625L130.375 3.5L126.875 7C125.125 6.125 124.25 5.25 122.5 5.25V0H113.75V5.25C112 5.25 110.25 6.125 109.375 7L105.875 3.5L99.75 9.625L103.25 13.125C102.375 14.875 101.5 15.75 101.5 17.5H96.25V26.25H101.5C101.5 28 102.375 29.75 103.25 30.625L99.75 34.125L105.875 40.25L109.375 36.75C111.125 37.625 112 38.5 113.75 38.5V43.75H122.5V38.5C124.25 38.5 126 37.625 126.875 36.75L130.375 40.25L136.5 34.125L133 30.625C133.875 28.875 134.75 28 134.75 26.25H140V26.25ZM118.125 30.625C112.875 30.625 109.375 27.125 109.375 21.875C109.375 16.625 112.875 13.125 118.125 13.125C123.375 13.125 126.875 16.625 126.875 21.875C126.875 27.125 123.375 30.625 118.125 30.625Z" fill="white"/>
<path d="M134.75 103.25C133.875 100.625 133 98 131.25 95.375L133.875 90.125L127.75 84L123.375 87.5C120.75 85.75 118.125 84.875 115.5 84L113.75 78.75H105L103.25 84C100.625 84.875 98 85.75 95.375 87.5L90.125 84.875L84 91L86.625 96.25C84.875 98.875 84 101.5 83.125 104.125L78.75 105V113.75L84 115.5C84.875 118.125 85.75 120.75 87.5 123.375L84.875 128.625L91 134.75L96.25 132.125C98.875 133.875 101.5 134.75 104.125 135.625L105 140H113.75L115.5 134.75C118.125 133.875 120.75 133 123.375 131.25L128.625 133.875L134.75 127.75L131.25 123.375C133 120.75 133.875 118.125 134.75 115.5L140 113.75V105L134.75 103.25ZM109.375 122.5C102.375 122.5 96.25 116.375 96.25 109.375C96.25 102.375 102.375 96.25 109.375 96.25C116.375 96.25 122.5 102.375 122.5 109.375C122.5 116.375 116.375 122.5 109.375 122.5Z" fill="white"/>
</g>
<defs>
<clipPath id="clip0_402_573">
<rect width="140" height="140" fill="white"/>
</clipPath>
</defs>
</svg>
