<svg width="53" height="52" viewBox="0 0 53 52" fill="none" xmlns="http://www.w3.org/2000/svg">
<rect x="0.928711" y="25.9822" width="36.7443" height="36.7443" transform="rotate(-45 0.928711 25.9822)" fill="#F5AF31"/>
<path d="M26.8151 14.6112C20.6083 14.6112 15.5757 19.6439 15.5757 25.8506C15.5757 32.0574 20.6083 37.09 26.8151 37.09C33.0219 37.09 38.0545 32.0574 38.0545 25.8506C38.0545 19.6439 33.0219 14.6112 26.8151 14.6112ZM32.2165 23.0834C32.2241 23.2013 32.2241 23.3243 32.2241 23.4447C32.2241 27.1276 29.4192 31.37 24.2938 31.37C22.7132 31.37 21.2481 30.9109 20.0137 30.1206C20.2395 30.1457 20.4553 30.1557 20.6861 30.1557C21.9907 30.1557 23.1899 29.7142 24.1457 28.9665C22.9214 28.9415 21.8928 28.1386 21.5416 27.0348C21.9706 27.0975 22.357 27.0975 22.7985 26.9846C22.1681 26.8565 21.6015 26.5142 21.1949 26.0157C20.7884 25.5172 20.5669 24.8933 20.5682 24.25V24.2149C20.937 24.4231 21.371 24.5511 21.8251 24.5686C21.4434 24.3142 21.1303 23.9695 20.9137 23.5652C20.6971 23.1608 20.5836 22.7092 20.5832 22.2505C20.5832 21.7312 20.7187 21.257 20.9621 20.8456C21.6618 21.7069 22.5349 22.4114 23.5247 22.9132C24.5145 23.4151 25.5989 23.703 26.7072 23.7583C26.3133 21.8641 27.7283 20.3313 29.4293 20.3313C30.2321 20.3313 30.9546 20.6674 31.4639 21.2093C32.0936 21.0914 32.6957 20.8556 33.2326 20.5395C33.0244 21.1843 32.5878 21.7287 32.0083 22.0724C32.5703 22.0122 33.1122 21.8566 33.6139 21.6383C33.2351 22.1953 32.7609 22.6895 32.2165 23.0834V23.0834Z" fill="white"/>
</svg>
